<?xml version="1.0" standalone="no"?>
<!DOCTYPE svg PUBLIC "-//W3C//DTD SVG 20010904//EN"
 "http://www.w3.org/TR/2001/REC-SVG-20010904/DTD/svg10.dtd">
<svg version="1.0" xmlns="http://www.w3.org/2000/svg"
 width="1612.000000pt" height="1612.000000pt" viewBox="0 0 1612.000000 1612.000000"
 preserveAspectRatio="xMidYMid meet">
<metadata>
Created by potrace 1.14, written by Peter Selinger 2001-2017
</metadata>
<g transform="translate(0.000000,1612.000000) scale(0.100000,-0.100000)"
fill="#000000" stroke="none">
<path d="M6320 12068 c-86 -7 -128 -14 -162 -27 -23 -9 -23 -9 7 -16 121 -28
324 -116 428 -187 83 -57 179 -150 248 -241 123 -163 240 -456 273 -682 4 -23
8 -50 10 -61 2 -11 7 -54 10 -95 4 -41 9 -92 12 -114 2 -22 6 -76 9 -120 2
-44 7 -129 10 -190 7 -125 12 -282 20 -640 12 -502 15 -793 20 -1995 l4 -1225
33 -29 c18 -16 58 -52 88 -80 30 -28 67 -60 81 -71 14 -11 71 -56 126 -100 55
-44 110 -88 124 -98 176 -129 362 -249 537 -349 18 -10 66 -37 105 -59 40 -23
91 -52 115 -66 23 -13 42 -20 43 -16 3 23 -1 254 -8 523 -10 386 -10 2882 0
3375 16 776 34 1226 50 1241 4 4 347 -549 347 -561 0 -2 31 -53 256 -420 44
-71 84 -137 87 -145 8 -16 26 -48 107 -185 29 -49 92 -157 140 -240 48 -82
111 -190 140 -240 28 -49 63 -109 76 -131 13 -23 103 -178 200 -345 97 -167
185 -317 194 -334 10 -16 66 -113 125 -215 60 -102 132 -225 160 -275 69 -119
230 -396 270 -465 18 -30 82 -140 142 -245 61 -104 117 -191 126 -193 19 -4
54 33 74 78 16 39 53 153 59 185 6 33 11 55 34 150 12 50 25 110 30 135 5 25
25 115 45 200 19 85 37 164 39 175 6 30 112 499 130 577 l16 67 -66 113 c-37
62 -74 127 -84 143 -9 17 -120 206 -245 420 -125 215 -237 406 -248 425 -10
19 -23 40 -27 45 -4 6 -19 30 -32 55 -35 62 -51 91 -168 290 -57 96 -111 190
-122 208 -26 47 -16 30 -493 847 -241 413 -461 779 -490 815 -125 156 -299
300 -445 369 l-55 26 -1215 0 c-668 0 -1249 -3 -1290 -7z"/>
<path d="M310 12050 c0 -3 35 -16 78 -29 397 -122 713 -496 836 -989 48 -192
68 -347 81 -622 12 -242 13 -1649 2 -1688 -12 -44 -55 -101 -111 -151 -262
-231 -449 -514 -545 -826 -38 -125 -49 -180 -64 -324 -25 -241 22 -528 121
-728 92 -187 315 -418 547 -566 28 -17 52 -35 55 -39 10 -13 2 -341 -9 -413
-15 -90 -19 -115 -25 -144 -34 -158 -149 -507 -210 -636 -95 -200 -284 -386
-561 -552 -72 -43 -188 -115 -260 -161 -72 -46 -151 -95 -177 -108 -26 -13
-49 -27 -51 -31 -3 -5 879 -8 1959 -8 1080 0 1958 2 1951 4 -6 2 -59 26 -117
53 -58 27 -121 56 -140 65 -122 54 -254 125 -305 165 -5 5 -41 32 -80 60 -83
62 -123 97 -224 198 -188 187 -222 244 -325 532 -80 228 -130 406 -142 513 -3
28 -8 57 -10 65 -3 8 -8 101 -11 206 l-5 191 65 46 c86 61 220 189 269 255 22
30 58 88 79 130 32 62 39 86 37 125 -1 26 -5 47 -9 47 -4 0 -53 -67 -109 -149
-101 -150 -184 -241 -276 -307 -222 -160 -548 -215 -854 -145 -135 31 -281 95
-413 181 -290 189 -505 500 -554 802 -10 57 -9 230 0 293 9 59 65 225 114 340
72 170 203 391 288 490 181 208 448 394 747 519 95 40 248 91 299 101 12 3 36
9 53 14 17 5 81 20 141 32 94 19 140 22 319 21 115 -1 250 -4 300 -7 111 -6
250 -15 291 -20 104 -12 142 -17 230 -31 63 -10 181 -35 212 -45 17 -6 43 -12
57 -15 39 -7 242 -77 341 -119 219 -91 424 -201 645 -348 110 -73 329 -234
350 -257 3 -3 28 -23 55 -45 95 -76 261 -230 435 -404 230 -231 303 -309 601
-641 165 -185 284 -316 310 -345 16 -16 38 -41 49 -55 62 -73 380 -401 479
-493 l51 -48 0 -162 c-1 -322 -57 -577 -185 -842 -108 -223 -284 -449 -450
-576 -16 -13 -32 -26 -35 -29 -46 -53 -568 -350 -614 -350 -8 0 -17 -3 -19 -7
-3 -5 887 -8 1978 -8 1091 0 1981 3 1979 6 -2 4 -16 10 -31 14 -38 9 -245 113
-340 171 -249 151 -403 266 -543 404 -135 134 -150 154 -245 345 -93 187 -144
318 -117 302 4 -3 41 -8 82 -12 41 -4 82 -8 90 -10 40 -8 227 -18 330 -19 258
-1 416 28 629 116 206 85 500 266 673 416 161 139 243 225 319 335 53 76 179
319 179 343 0 5 13 44 29 87 18 49 24 74 15 66 -8 -6 -14 -15 -14 -20 0 -16
-130 -221 -193 -303 -171 -226 -446 -441 -745 -583 -102 -49 -340 -136 -402
-146 -14 -3 -43 -10 -65 -15 -22 -6 -62 -14 -90 -18 -27 -3 -53 -8 -56 -10
-11 -6 -201 -18 -289 -17 -173 1 -365 33 -519 88 -24 8 -47 15 -52 15 -4 0 -1
-22 7 -50 17 -57 54 -227 54 -247 0 -16 -15 -13 -150 29 -320 100 -649 283
-1062 590 l-148 110 14 26 c38 74 49 187 26 283 -38 159 -133 290 -345 474
-215 186 -412 380 -595 584 -41 46 -86 96 -100 111 -14 15 -36 40 -49 56 -13
16 -45 52 -70 79 -25 28 -84 93 -131 145 -304 337 -577 580 -860 766 -166 108
-273 169 -451 256 -114 55 -388 168 -409 168 -5 0 -18 4 -28 10 -17 10 -126
43 -267 81 -64 17 -269 61 -340 73 -248 42 -373 51 -685 51 l-275 0 2 1369 3
1369 -27 48 c-50 92 66 84 -1175 84 -604 0 -1098 -2 -1098 -5z"/>
<path d="M13400 12050 c-8 -6 -6 -476 5 -920 7 -326 10 -505 20 -1245 4 -291
8 -656 10 -810 17 -1225 24 -3129 12 -3307 -19 -263 -101 -570 -218 -810 -103
-210 -327 -448 -566 -601 -148 -95 -282 -151 -603 -252 -63 -19 -124 -40 -135
-44 -11 -5 -30 -13 -43 -17 -13 -5 886 -9 2103 -10 1169 -1 2125 0 2125 2 0 2
-44 25 -97 52 -54 28 -116 59 -138 70 -22 11 -95 48 -162 81 -380 186 -668
465 -802 777 -23 55 -46 108 -51 119 -51 113 -123 408 -136 555 -31 343 -36
3012 -9 4265 9 402 33 859 50 915 2 8 6 33 10 55 8 60 63 251 92 325 127 324
312 548 548 668 62 31 204 82 284 102 33 9 41 14 32 23 -8 8 -312 11 -1167 12
-636 0 -1159 -2 -1164 -5z"/>
</g>
</svg>
